# xmcd
#
# Track frame offsets:
#	150
#	24860
#	43095
#	62835
#	80992
#	102035
#	118482
#	139690
#	156620
#	174225
#	190007
#	202242
#
# Disc length: 3039 seconds
#
# Revision: 1051481332
# Processed by: cddbd v1.5.2PL0 Copyright (c) Steve Scherf et al.
# Submitted via: EZCDAudioConverter 8.5.0.1
#
DISCID=ad0bdd0c
DTITLE=Travis Tritt - The Storm
DYEAR=2007
DGENRE=Country
TTITLE0=Mudcat Moan [Prelude] - You Never Take Me Dancing
TTITLE1=(I Wanna) Feel Too Much
TTITLE2=Doesn't The Good Outweigh The Bad
TTITLE3=What If Love Hangs On
TTITLE4=Rub Off On Me
TTITLE5=Something Stronger Than Me
TTITLE6=The Storm
TTITLE7=I Don't Know How I Got By
TTITLE8=The Pressure Is On
TTITLE9=Should've Listened
TTITLE10=High Time For Gettin' Down
TTITLE11=Somehow, Somewhere, Someway
EXTD=
EXTT0=
EXTT1=
EXTT2=
EXTT3=
EXTT4=
EXTT5=
EXTT6=
EXTT7=
EXTT8=
EXTT9=
EXTT10=
EXTT11=
PLAYORDER=
